<svg enable-background="new 0 0 422 422" height="512" viewBox="0 0 422 422" width="512" xmlns="http://www.w3.org/2000/svg"><g fill="#4a616d"><path d="m315.91 415.682c-18.036-25.363-33.765-53.708-46.749-84.248-9.987-23.464-18.514-48.622-25.406-74.934h1.595c2.209 0 4-1.791 4-4s-1.791-4-4-4h-3.608c-.284-1.148-.586-2.285-.864-3.438-27.564-114.287-16.372-214.6-16.255-215.6.123-1.066-.186-2.136-.857-2.971-.672-.835-1.651-1.365-2.718-1.473l-6.048-.606v-20.412c0-2.209-1.791-4-4-4s-4 1.791-4 4v20.414l-6.049.606c-1.066.107-2.046.638-2.718 1.473s-.98 1.905-.857 2.971c.117 1 11.311 101.313-16.255 215.6-.278 1.152-.58 2.289-.864 3.438h-3.608c-2.209 0-4 1.791-4 4s1.791 4 4 4h1.596c-6.893 26.315-15.42 51.474-25.407 74.935-12.98 30.534-28.709 58.88-46.748 84.246-.867 1.22-.981 2.822-.295 4.152.687 1.33 2.058 2.166 3.555 2.166h41.69c1.093 0 2.138-.447 2.893-1.237s1.153-1.854 1.104-2.945c-.027-.601-.036-1.209-.036-1.817 0-30.879 25.121-56 56-56s56 25.121 56 56c0 .61-.01 1.221-.036 1.822-.049 1.091.351 2.154 1.105 2.942.755.789 1.799 1.235 2.891 1.235h41.689c1.497 0 2.868-.836 3.555-2.166.686-1.331.572-2.934-.295-4.153zm-127.011-168.744c24.771-102.701 18.605-194.315 16.82-214.354l5.13-.514 5.432.514c-1.785 20.039-7.95 111.653 16.82 214.354.126.524.265 1.039.393 1.563h-44.987c.127-.524.266-1.039.392-1.563zm86.07 167.062c-1.06-34.367-29.349-62-63.969-62s-62.908 27.633-63.969 62h-30.017c16.536-24.193 31.046-50.878 43.186-79.434 10.393-24.417 19.213-50.643 26.295-78.066h49.009c7.081 27.42 15.901 53.645 26.295 78.065 12.142 28.56 26.651 55.244 43.185 79.435z"/><path d="m224.001 274.458c-.471-1.746-2.054-2.959-3.862-2.959h-18.275c-1.809 0-3.392 1.213-3.862 2.959l-15.362 57c-.411 1.527.115 3.152 1.344 4.148 1.229.995 2.926 1.176 4.336.456 6.991-3.567 14.835-5.452 22.683-5.452s15.691 1.885 22.683 5.452c.574.293 1.197.436 1.816.436.899 0 1.792-.303 2.52-.893 1.229-.996 1.755-2.621 1.344-4.148zm-13 48.152c-6.281 0-12.56 1.041-18.513 3.045l12.439-46.156h12.146l12.439 46.156c-5.952-2.004-12.23-3.045-18.511-3.045z"/></g></svg>