<svg clip-rule="evenodd" fill-rule="evenodd" stroke-linejoin="round" stroke-miterlimit="2" viewBox="0 0 128 128" xmlns="http://www.w3.org/2000/svg"><g fill="#fff" fill-rule="nonzero"><g transform="matrix(.26909 0 0 .26909 -1.82873 50.959550887)"><path d="m222.97 10.087h-11.648c-8.147 0-15.627 2.974-20.359 7.941-3.333-5.092-9.783-7.941-18.298-7.941h-11.636c-17.543 0-28.715 8.572-31.461 24.141l-7.528 42.815h18.97l6.621-37.274c1.373-8.098 5.934-11.555 15.257-11.555h5.128c4.316 0 7.274.909 8.791 2.705 1.42 1.678 1.822 4.413 1.191 8.118l-11.465 65.396h19.124l11.337-64.966c1.412-8.098 5.521-11.253 14.639-11.253h5.122c4.417 0 7.303.872 8.823 2.671 1.403 1.668 1.8 4.414 1.165 8.152l-11.461 65.396h18.966l12.108-69.309c1.326-7.504.159-13.502-3.473-17.828-4.01-4.786-10.713-7.209-19.913-7.209z"/><path d="m321.76 39.031-6.363 35.86c-1.726 9.68-7.528 11.573-16.972 11.573h-19.094c-4.8 0-7.893-.91-9.474-2.786-1.404-1.665-1.776-4.296-1.135-8.035l6.373-35.874c1.383-8.206 5.807-11.555 15.261-11.555h19.094c6.121 0 9.591.893 11.269 2.896 1.359 1.621 1.702 4.216 1.041 7.921zm16.365-21.758c-4.004-4.773-10.78-7.186-20.142-7.186h-29.651c-17.248 0-28.716 8.907-31.464 24.45l-7.76 44.392c-1.346 7.618-.133 13.733 3.602 18.18 4.017 4.793 10.86 7.324 19.788 7.324h29.648c17.157 0 28.568-8.908 31.31-24.44l8.079-45.178c1.305-7.39.153-13.293-3.41-17.542z"/><path d="m395.146 47.028h-18.63c-3.501 0-5.981-.818-7.388-2.436-1.583-1.812-1.6-4.417-1.432-5.897l.228-.752c.843-4.437 3.716-9.729 12.629-9.729h44.648l3.258-18.127h-47.443c-17.459 0-28.581 8.515-31.289 23.913l-.792 3.792c-1.507 8.558-.265 15.294 3.695 20.01 4.011 4.779 10.535 7.202 19.385 7.202h18.627c3.575 0 6.101.846 7.517 2.524 1.551 1.829 1.521 4.35 1.239 6.051l-.641 3.051c-.58 3.611-3.003 9.676-12.616 9.676h-44.979l-3.055 18.127h47.726c17.458 0 28.577-8.512 31.306-23.984l1.087-6.209c1.507-8.561.262-15.29-3.702-20.009-4.006-4.779-10.527-7.203-19.378-7.203z"/><path d="m38.794 86.464c-6.145 0-9.394-.749-10.861-2.504-1.262-1.507-1.55-4.273-.879-8.656l2.483-15.327 3.461-19.419c1.58-8.881 6.031-12.344 15.884-12.344h19.094c6.286 0 9.853.765 11.233 2.406.611.735 1.342 2.178.617 6.243l-.248 1.413.121-.021-.175.819c-.58 3.615-5.866 8.938-13.683 10.69l-26.655 7.612-3.057 18.126 30.608-7.434c15.365-3.91 28.444-9.706 31.169-25.174l1.087-6.209c.111-.631.175-1.229.256-1.836h-.074c1.221-7.421.06-13.361-3.524-17.63-3.971-4.732-10.566-7.132-19.6-7.132h-29.498c-17.539 0-28.712 8.572-31.464 24.141l-7.756 44.55c-1.356 7.746-.141 13.938 3.611 18.405 3.984 4.742 10.77 7.25 19.624 7.25h106.82l3.058-17.969z"/></g><path d="m454.395 45.81h24.822l3.257-18.126h-24.937l3.045-17.597h-18.97l-15.038 86.593c-1.334 7.534-.132 13.592 3.57 18.002 4.034 4.806 10.938 7.347 19.973 7.347h21.764l3.035-17.972h-18.121c-4.762 0-7.852-.92-9.451-2.813-1.395-1.658-1.785-4.353-1.16-8.008z" transform="matrix(.26909 0 0 .26909 -1.82873 46.2245006293)"/></g></svg>