<svg clip-rule="evenodd" fill-rule="evenodd" stroke-linejoin="round" stroke-miterlimit="2" viewBox="0 0 192 128" xmlns="http://www.w3.org/2000/svg"><path d="m70.122 12h-6.931l2.434-12h-58.644l-6.194 31h23.379l1.59-8h-13.815l.79-4h13.824l1.403-7h-13.792l.788-4h21.952l-4.595 23h9.533l4.593-23h8.003l-4.593 23h9.606l2.377-12h6.929l-2.375 12h9.56l6.198-31h-9.586zm40.902-8h3.189l.79-4h-3.174zm8.179 0h3.191l.788-4h-3.174zm29.828 0h3.189l.792-4h-3.176zm15.963 5.908c-5.565 0-9.47 3.94-10.72 10.812-.197 1.076-.297 2.167-.3 3.26 0 4.694 2.833 7.612 7.401 7.612 2.641.007 5.174-1.063 7.009-2.962l.028-.03-1.769-2.168-.032-.038-.034.036c-1.222 1.53-3.076 2.423-5.034 2.426-2.177 0-4.504-1.306-4.504-4.962.008-1.06.121-2.118.336-3.156.327-2.228 1.266-4.322 2.712-6.048 1.179-1.299 2.854-2.041 4.608-2.042 1.696-.077 3.291.833 4.089 2.332l.026.042 2.252-1.912.032-.028-.024-.034c-1.316-2.055-3.638-3.255-6.076-3.14zm20.354-.449c-2.262-.112-4.466.761-6.038 2.392l2.392-11.851h-3.084l-6.196 31h3.084l2.572-13.023c1.102-5.488 5.36-5.766 6.2-5.766.116-.012.232-.018.348-.018 1.881 0 3.43 1.549 3.43 3.43 0 .095-.004.19-.012.285-.015.661-.088 1.319-.216 1.968l-2.616 13.124h3.08l2.706-13.409c.14-.696.212-1.405.216-2.115.009-.131.014-.262.014-.394 0-3.088-2.541-5.629-5.629-5.629-.084 0-.167.002-.251.006zm-41.577 21.49-.01.052h3.041l4.15-21h-2.99zm-55.772-18.005-.009.057h10.322l-13.609 15.465-.006.008-.511 2.527h14.657l.577-3h-10.957l13.649-15.465.006-.01.513-2.525h-14.062zm50.709-3.199c-2.224-.058-4.352.928-5.745 2.662l.472-2.359.008-.047h-3l-4.147 20.948-.008.052h3.045l2.536-12.85c.649-3.295 3.168-5.688 5.994-5.688 1.155-.028 2.251.523 2.919 1.466l.03.038 2.469-2.224-.024-.03c-1.132-1.32-2.812-2.047-4.549-1.968zm-18.369.256h3.084l-.008.05-4.144 20.95h-3.001l.01-.052.397-2.18c-1.552 1.677-3.768 2.587-6.051 2.484-.083.004-.165.006-.248.006-3.043 0-5.546-2.504-5.546-5.546 0-.133.005-.265.014-.397.009-.639.081-1.275.217-1.899l.035-.19 2.622-13.226h3.043l-.01.05-2.577 12.898c-.123.64-.192 1.289-.207 1.94-.007.088-.01.177-.01.265 0 1.867 1.535 3.402 3.402 3.402.12 0 .241-.006.361-.019.825 0 4.989-.276 6.076-5.693z" fill="#fff" fill-opacity=".94" fill-rule="nonzero" transform="matrix(.945176 0 0 .945176 5.25615 49.07)"/></svg>