<svg clip-rule="evenodd" fill="#fff" fill-rule="evenodd" stroke-linejoin="round" stroke-miterlimit="2" viewBox="0 0 800 200" xmlns="http://www.w3.org/2000/svg"><g fill-rule="nonzero"><path d="m.366.003c-.047 0-.09-.011-.127-.034-.037-.022-.067-.053-.088-.092-.022-.039-.033-.084-.033-.135s.011-.097.033-.136c.021-.039.051-.07.088-.093.037-.022.08-.033.127-.033s.09.011.128.033c.038.023.068.054.09.093s.033.085.033.136-.011.096-.033.135-.052.07-.09.092c-.038.023-.081.034-.128.034zm-.251.191v-.711h.02v.19l-.01.07.01.07v.381zm.251-.21c.044 0 .084-.01.119-.031.035-.02.062-.048.082-.085s.03-.079.03-.126c0-.048-.01-.09-.03-.127-.02-.036-.047-.064-.082-.085s-.075-.031-.119-.031-.084.01-.118.031c-.035.021-.063.049-.083.085-.02.037-.03.079-.03.127 0 .047.01.089.03.126s.048.065.083.085c.034.021.074.031.118.031z" transform="matrix(128 0 0 128 61.888 147.488)"/><path d="m.352-.52c.043 0 .079.008.11.024.031.017.055.041.072.073s.025.071.025.118v.305h-.02v-.305c0-.064-.016-.113-.049-.146s-.078-.05-.137-.05c-.045 0-.084.009-.117.027-.033.019-.058.044-.075.077s-.026.072-.026.116v.281h-.02v-.742h.02v.372l-.002-.003c.015-.045.042-.081.079-.108.037-.026.084-.039.14-.039z" transform="matrix(128 0 0 128 147.776 147.488)"/><path d="m.445 0v-.338c0-.054-.014-.095-.042-.122s-.069-.041-.122-.041c-.039 0-.074.007-.106.02s-.059.031-.082.052l-.014-.014c.025-.023.055-.042.09-.056s.072-.021.111-.021c.06 0 .106.015.138.046.031.031.047.076.047.135v.339zm-.197.003c-.039 0-.072-.006-.099-.018s-.048-.029-.062-.051c-.015-.022-.022-.047-.022-.076 0-.025.006-.048.018-.069.011-.021.03-.038.057-.051s.063-.019.109-.019h.207v.019h-.208c-.059 0-.1.011-.125.033-.026.023-.038.051-.038.086 0 .039.014.069.043.092s.069.035.12.035c.05 0 .091-.012.124-.035.032-.023.056-.055.073-.097l.01.013c-.014.041-.038.075-.073.1-.035.025-.08.038-.134.038z" transform="matrix(128 0 0 128 233.28 147.488)"/><path d="m.234.003c-.042 0-.081-.007-.118-.02s-.065-.03-.084-.051l.012-.016c.019.018.045.034.078.047.033.014.071.021.112.021.061 0 .105-.011.132-.032s.04-.049.04-.083c0-.025-.006-.044-.019-.059-.013-.014-.029-.025-.05-.033-.021-.007-.045-.013-.07-.018s-.051-.01-.076-.015-.049-.013-.069-.023c-.022-.009-.038-.023-.051-.04-.013-.016-.019-.039-.019-.068 0-.023.006-.045.019-.065s.032-.036.06-.049c.027-.013.061-.019.104-.019.032 0 .064.005.095.014.031.01.057.023.076.039l-.012.016c-.021-.017-.045-.029-.073-.038-.028-.008-.057-.012-.086-.012-.057 0-.098.011-.123.033-.026.022-.039.049-.039.081 0 .025.006.045.019.06s.03.027.051.035.044.014.069.019.051.01.076.015.047.013.069.022c.021.009.037.022.05.038.013.017.019.039.019.067 0 .026-.007.049-.021.069-.014.021-.035.037-.063.048-.029.011-.065.017-.108.017z" transform="matrix(128 0 0 128 306.752 147.488)"/><path d="m.312.003c-.05 0-.094-.011-.133-.034-.039-.022-.069-.053-.091-.093-.023-.039-.034-.084-.034-.135s.01-.097.031-.136.049-.069.086-.092c.036-.022.077-.033.122-.033s.086.011.123.032c.036.022.065.052.086.091s.031.083.031.133v.005h-.468v-.019h.457l-.008.015c0-.045-.01-.086-.029-.122s-.045-.064-.078-.085-.071-.031-.114-.031c-.042 0-.08.01-.113.031s-.059.049-.078.085-.029.077-.029.122v.004c0 .047.01.089.031.126s.049.065.085.086.077.031.123.031c.035 0 .068-.007.099-.02s.056-.033.077-.06l.014.014c-.023.028-.051.049-.084.063-.033.015-.069.022-.106.022z" transform="matrix(128 0 0 128 366.016 147.488)"/><path d="m.42.006c-.053 0-.102-.009-.147-.026-.045-.018-.084-.043-.117-.075-.033-.033-.058-.07-.077-.113-.018-.044-.027-.091-.027-.142s.009-.098.027-.142c.019-.043.044-.08.077-.113.034-.032.073-.057.117-.075.045-.018.094-.026.147-.026s.101.008.146.026.083.043.116.075c.034.032.059.07.078.113.018.043.027.091.027.142s-.009.099-.027.142c-.019.043-.044.081-.078.113-.033.032-.071.057-.116.075s-.093.026-.146.026zm0-.066c.042 0 .08-.007.116-.021.036-.015.067-.035.093-.061.027-.027.048-.058.062-.093.015-.035.022-.073.022-.115s-.007-.08-.022-.115c-.014-.035-.035-.066-.061-.092-.027-.027-.058-.047-.094-.062-.035-.014-.074-.021-.116-.021s-.081.007-.117.021c-.036.015-.067.035-.094.062-.026.026-.047.057-.061.092-.015.035-.023.073-.023.115s.008.08.023.115c.014.035.035.066.061.093.027.026.058.046.094.061.036.014.075.021.117.021z" transform="matrix(128 0 0 128 441.152 147.488)"/><path d="m.114 0v-.7h.061l.483.608h-.032v-.608h.073v.7h-.061l-.482-.608h.032v.608z" transform="matrix(128 0 0 128 548.16 147.488)"/><path d="m.18-.387h.37v.063h-.37zm.008.323h.421v.064h-.495v-.7h.48v.064h-.406z" transform="matrix(128 0 0 128 652.608 147.488)"/></g></svg>